#define battery_width 15
#define battery_height 9
static unsigned char battery_bits[] = {
 0x00, 0x00, 0xFF, 0x1F, 0xFF, 0x13, 0xFF, 0x73, 0xFF, 0x53, 0xFF, 0x73,
 0xFF, 0x13, 0xFF, 0x1F, 0x00, 0x00 };
