#define clock_width 9
#define clock_height 9
static unsigned char clock_bits[] = {
 0x38, 0x00, 0x44, 0x00, 0x92, 0x00, 0x11, 0x01, 0x11, 0x01, 0x21, 0x01,
 0x82, 0x00, 0x44, 0x00, 0x38, 0x00 };
