#define cpu_width 9
#define cpu_height 9
static unsigned char cpu_bits[] = {
 0x55, 0x01, 0x00, 0x00, 0xFF, 0x01, 0xFF, 0x01, 0xFF, 0x01, 0xFF, 0x01,
 0xFF, 0x01, 0x00, 0x00, 0x55, 0x01 };
