#define mem_width 9
#define mem_height 9
static unsigned char mem_bits[] = {
 0x00, 0x00, 0xFF, 0x01, 0xFF, 0x01, 0xFF, 0x01, 0xFF, 0x01, 0xFF, 0x01,
 0x55, 0x01, 0x55, 0x01, 0x00, 0x00 };
