#define volume_width 13
#define volume_height 9
static unsigned char volume_bits[] = {
 0x10, 0x10, 0x18, 0x14, 0x1C, 0x15, 0x5F, 0x15, 0x5F, 0x15, 0x5F, 0x15,
 0x1C, 0x15, 0x18, 0x14, 0x10, 0x10 };
